<svg height="512" viewBox="0 0 512 512" width="512" xmlns="http://www.w3.org/2000/svg"><circle cx="136.01" cy="8" r="8"/><path d="m448.06 56a56 56 0 0 0 -56-56h-224.05a8 8 0 0 0 0 16h224.05a40.049 40.049 0 0 1 40 40v400a40.049 40.049 0 0 1 -40 40h-320a8 8 0 0 1 -5.65-2.35 8.086 8.086 0 0 1 -2.357-5.593c0-.019 0-.037 0-.056v-56.001h24a8 8 0 0 0 0-16h-60a28 28 0 1 0 0 56h20v16c0 .054.007.106.008.16a24.031 24.031 0 0 0 23.999 23.84h320a55.993 55.993 0 0 0 56-56zm-400 400h-20a12 12 0 0 1 0-24h20z"/><path d="m456.056 0h-.08a8 8 0 0 0 .08 16 40.046 40.046 0 0 1 40 40v400a40.062 40.062 0 0 1 -40.08 40 8 8 0 0 0 .08 16 56.063 56.063 0 0 0 56-56v-400a56.063 56.063 0 0 0 -56-56z"/><circle cx="472.06" cy="444" r="8"/><path d="m472.06 388a8.011 8.011 0 0 0 8-8v-312a8 8 0 1 0 -16 0v312a8 8 0 0 0 8 8z"/><circle cx="472.06" cy="412" r="8"/><path d="m28.06 88h20v16a8 8 0 1 0 15.99 0v-56h24.01a8 8 0 0 0 0-16h-24.01v-8a8.058 8.058 0 0 1 8.01-8h31.95a8 8 0 0 0 0-16h-31.95a24.036 24.036 0 0 0 -24 24v8h-20a28 28 0 1 0 0 56zm0-40h20v24h-20a12 12 0 0 1 0-24z"/><path d="m28.06 184h20v16a8 8 0 0 0 16 0v-56h24a8 8 0 0 0 0-16h-60a28 28 0 1 0 0 56zm0-40h20v24h-20a12 12 0 0 1 0-24z"/><path d="m28.06 280h20v16a8 8 0 0 0 16 0v-56h24a8 8 0 0 0 0-16h-60a28 28 0 1 0 0 56zm0-40h20v24h-20a12 12 0 0 1 0-24z"/><path d="m28.06 376h20v16a8 8 0 0 0 16 0v-56h24a8 8 0 0 0 0-16h-60a28 28 0 1 0 0 56zm0-40h20v24h-20a12 12 0 0 1 0-24z"/><path d="m133.479 290.88c15.7 22.58 39.38 42.23 70.38 58.41a257.913 257.913 0 0 0 41.911 17.5l.06.02a8 8 0 0 0 9.23-11.55 7.906 7.906 0 0 0 -4.781-3.82c-.009-.01-.1-.03-.279-.09a213.3 213.3 0 0 1 -22.23-8.39 240.268 240.268 0 0 1 -42.13-23.31c-17.02-11.88-30.491-25.14-40.05-39.41-11.78-17.62-17.521-36.12-17.54-56.56a59.643 59.643 0 0 1 6.47-27.09 8 8 0 1 0 -14.27-7.22 75.47 75.47 0 0 0 -8.19 34.31 114.653 114.653 0 0 0 5.91 36.59 121.785 121.785 0 0 0 15.509 30.61z"/><path d="m169.56 150.77a8 8 0 0 0 6.8 12.2 8.37 8.37 0 0 0 1.861-.21 69.89 69.89 0 0 1 16.17-1.88 67.621 67.621 0 0 1 48.03 19.6l5.63 5.6 5.639-5.6a68.87 68.87 0 0 1 94.081-2.02 61.113 61.113 0 0 1 20.209 42.39 7.99 7.99 0 0 0 7.991 7.63c.12 0 .25 0 .38-.01a8.015 8.015 0 0 0 7.62-8.36 75.558 75.558 0 0 0 -7.52-29.57 78.581 78.581 0 0 0 -17.89-23.9 84.783 84.783 0 0 0 -110.51-2.62 83.086 83.086 0 0 0 -24.541-14.02 84.686 84.686 0 0 0 -29.13-5.12 86.129 86.129 0 0 0 -19.851 2.31 7.956 7.956 0 0 0 -4.969 3.58z"/><path d="m139.75 167.56a8.016 8.016 0 1 0 3.05-5.3 7.932 7.932 0 0 0 -3.05 5.3z"/><path d="m320.04 368.31h.01l2.16-.61c.019 0 .069-.02.16-.04a153.486 153.486 0 0 0 38.05-17.7c11.28-7.35 20.32-15.7 26.88-24.82a68.5 68.5 0 0 0 9.22-17.57 63.9 63.9 0 0 0 3.54-21.12 43.54 43.54 0 0 0 -4.02-18.3 45.9 45.9 0 0 0 -10.811-14.77 51.438 51.438 0 0 0 -34.929-13.38h-.1a52.889 52.889 0 0 0 -16.15 2.53 50.58 50.58 0 0 0 -13.99 7.01 50.776 50.776 0 0 0 -14-7.01 52.614 52.614 0 0 0 -16.2-2.53 51.4 51.4 0 0 0 -34.979 13.38 45.918 45.918 0 0 0 -10.811 14.77 43.377 43.377 0 0 0 -4.009 18.3 63.877 63.877 0 0 0 3.54 21.12 68.092 68.092 0 0 0 9.21 17.57c9.169 12.72 22.93 23.76 40.87 32.82a148.6 148.6 0 0 0 24.179 9.73zm-33.2-32.8c-9.2-6.21-16.47-13.1-21.59-20.48a49.054 49.054 0 0 1 -9.2-28.58 28.908 28.908 0 0 1 9.67-21.3 35.426 35.426 0 0 1 24.13-9.15h.02a35.283 35.283 0 0 1 24.64 9.67l5.54 5.33 5.55-5.33a35.286 35.286 0 0 1 24.65-9.67h.05a35.438 35.438 0 0 1 24.09 9.15 28.948 28.948 0 0 1 9.67 21.3 49.319 49.319 0 0 1 -9.75 29.36c-9.991 13.99-26.26 23.45-35.06 27.85a147.007 147.007 0 0 1 -15.29 6.62c-1.34.48-2.65.94-3.91 1.35a140.088 140.088 0 0 1 -33.21-16.12z"/><path d="m184.056 104a8 8 0 0 0 8 8h112a8 8 0 0 0 0-16h-112a8 8 0 0 0 -8 8z"/><path d="m280.056 80a8 8 0 0 0 0-16h-64a8 8 0 0 0 0 16z"/><path d="m312.056 408a8 8 0 0 0 -8-8h-112a8 8 0 0 0 0 16h112a8 8 0 0 0 8-8z"/><path d="m216.056 432a8 8 0 0 0 0 16h64a8 8 0 1 0 0-16z"/></svg>